# xmcd
#
# Track frame offsets:
#	150
#	10297
#	21535
#	27448
#	47526
#	56255
#	67497
#	83732
#	89325
#	96710
#	107994
#	120313
#	129645
#	137017
#	146638
#	158527
#	167309
#	177743
#
# Disc length: 2432 seconds
#
# Revision: 0
# Processed by: cddbd v1.5.2PL0 Copyright (c) Steve Scherf et al.
# Submitted via: audiograbber 1.83.01
#
DISCID=fc097e12
DTITLE=Ceske sprostonarodni pisne - Zala Anca travu
DYEAR=1900
DGENRE=
TTITLE0=Byla jsem mlada
TTITLE1=Zdalo se mi ma panenko
TTITLE2=Zala Anca travu
TTITLE3=Cirkus
TTITLE4=Pisen o prdu
TTITLE5=V mori plujou rybicky and Sla Anynka
TTITLE6=Terezinska porodnice
TTITLE7=Sel dratenik po ulici
TTITLE8=Moje zena
TTITLE9=Kdyz jsem sel na Perstat
TTITLE10=Okolo Suce
TTITLE11=Kominik
TTITLE12=Faraon
TTITLE13=Nasel to dedecek
TTITLE14=Bozena
TTITLE15=Marjanko
TTITLE16=Proc se ti hajove
TTITLE17=Piju ja
EXTD=
EXTT0=
EXTT1=
EXTT2=
EXTT3=
EXTT4=
EXTT5=
EXTT6=
EXTT7=
EXTT8=
EXTT9=
EXTT10=
EXTT11=
EXTT12=
EXTT13=
EXTT14=
EXTT15=
EXTT16=
EXTT17=
PLAYORDER=
